inDegrees=yes
name=ik_S55_A02_T01
DataType=double
version=3
OpenSimVersion=4.3-2021-08-27-4bc7ad9
endheader
time	pelvis_tilt	pelvis_list	pelvis_rotation	pelvis_tx	pelvis_ty	pelvis_tz	hip_flexion_r	hip_adduction_r	hip_rotation_r	knee_angle_r	knee_angle_r_beta	ankle_angle_r	subtalar_angle_r	mtp_angle_r	hip_flexion_l	hip_adduction_l	hip_rotation_l	knee_angle_l	knee_angle_l_beta	ankle_angle_l	subtalar_angle_l	mtp_angle_l	lumbar_extension	lumbar_bending	lumbar_rotation	arm_flex_r	arm_add_r	arm_rot_r	elbow_flex_r	pro_sup_r	wrist_flex_r	wrist_dev_r	arm_flex_l	arm_add_l	arm_rot_l	elbow_flex_l	pro_sup_l	wrist_flex_l	wrist_dev_l
43.40000000000119	-1.048208478343097	4.731004342500417	98.06033813408419	0	0.9399999999999999	0	7.977561315916459	-5.078327191289171	-6.711801265013957	15.86727582232211	0.2769362064216116	0	0	0	-1.882970297538715	3.391897421307295	-0.5020206846136966	4.21088119713977	0.07349374130040941	0	0	0	0	0	0	37.49113392567865	-37.49113392567865	4.791417468633836	82.3487499384072	85.20858279690201	0	0	37.49113392567865	-37.49113392567865	4.791417468633836	82.3487499384072	85.20858279686115	0	0
43.42000000000119	-1.145489534935704	4.777572188502363	97.88162467883015	0	0.9399999999999999	0	7.042565481664311	-5.354890730474169	-6.726140713151951	17.70692363111943	0.309044117762224	0	0	0	-1.612962448272892	3.438510768838522	-0.5921551201349189	3.870463507395936	0.06755233178234699	0	0	0	0	0	0	37.4934358802581	-37.4934358802581	4.79154539925327	82.35037727500743	85.20845486628849	0	0	37.4934358802581	-37.4934358802581	4.79154539925327	82.35037727500743	85.20845486624766	0	0
43.44000000000119	-1.233737055344206	4.878130356232162	97.59124246137165	0	0.9399999999999999	0	5.912138760134822	-5.590038883554514	-6.873381237249242	19.17559969668179	0.3346773507515232	0	0	0	-1.347336192030478	3.443843585712658	-0.9547077780548161	3.619997093231622	0.06318086818951593	0	0	0	0	0	0	37.49555452317924	-37.49555452317924	4.791663190282698	82.35187563164222	85.20833707526448	0	0	37.49555452317924	-37.49555452317924	4.791663190282698	82.35187563164222	85.20833707522367	0	0
43.46000000000119	-1.265157636716896	4.936862594740627	97.43537868650267	0	0.9399999999999999	0	4.654877597683186	-5.75034776088539	-7.330318509009239	20.35140744521854	0.3551990673339511	0	0	0	-1.019854794927515	3.419939719363825	-1.277356596395753	3.971436522726226	0.06931464335552726	0	0	0	0	0	0	37.49758661920819	-37.49758661920819	4.791776182649423	82.35331294646866	85.208224082903	0	0	37.49758661920819	-37.49758661920819	4.791776182649423	82.35331294646866	85.2082240828622	0	0
43.4800000000012	-1.24212934635135	4.949089427098834	97.33184476024898	0	0.9399999999999999	0	2.245984105085938	-5.395302067204281	-8.564973070893853	18.26518380194358	0.3187875958258514	0	0	0	-0.6791791747444592	3.316077573645543	-1.530313412872094	3.772549755731914	0.06584341443282972	0	0	0	0	0	0	37.49996444798906	-37.49996444798906	4.79190852436153	82.3549963960906	85.20809174119712	0	0	37.49996444798906	-37.49996444798906	4.79190852436153	82.3549963960906	85.20809174115632	0	0
43.5000000000012	-1.207153912306772	4.943088115468114	97.25760499508786	0	0.9399999999999999	0	1.002678066971946	-5.308322921321206	-8.951795581526056	18.1184705495197	0.316226966514745	0	0	0	-0.3302686787354874	3.136061818296791	-1.753904117333182	4.049128030543726	0.07067061596778154	0	0	0	0	0	0	37.50158320201508	-37.50158320201508	4.791998405743039	82.35613972342574	85.2080018598197	0	0	37.50158320201508	-37.50158320201508	4.791998405743039	82.35613972342574	85.20800185977896	0	0
43.5200000000012	-1.134706473995096	4.933821853123114	97.11223061956754	0	0.9399999999999999	0	0.9081692031483988	-5.623635723711387	-8.729937003046826	21.62657339143316	0.3774549116047051	0	0	0	0.09507460388965104	2.863571679361525	-2.010880225822912	3.341636892182418	0.05832256617469395	0	0	0	0	0	0	37.50407518640258	-37.50407518640258	4.792134577039891	82.35787181266659	85.20786568852911	0	0	37.50407518640258	-37.50407518640258	4.792134577039891	82.35787181266659	85.20786568848837	0	0
43.54000000000121	-1.104578167458269	4.941833465467966	97.02317516508215	0	0.9399999999999999	0	-0.4198747312393417	-5.69630291177004	-9.010472051960445	23.15791822329482	0.40418192090409	0	0	0	0.5012490801142657	2.624125554601563	-2.256074969579493	3.736671962491154	0.0652172288124287	0	0	0	0	0	0	37.50599675873771	-37.50599675873771	4.792241108304543	82.35922692680143	85.20775915726946	0	0	37.50599675873771	-37.50599675873771	4.792241108304543	82.35922692680143	85.20775915722874	0	0
43.56000000000121	-1.1468654412629	4.873840112652296	96.94427486666244	0	0.9399999999999999	0	-0.2996184549120849	-5.831811165528145	-8.875050964172679	24.5182937498442	0.4279249529059282	0	0	0	0.5882081148120547	2.666988330437294	-2.345497777860484	2.675703247090777	0.04669983146803744	0	0	0	0	0	0	37.50887257557761	-37.50887257557761	4.792397517910419	82.36121642182042	85.20760274767092	0	0	37.50887257557761	-37.50887257557761	4.792397517910419	82.36121642182042	85.2076027476302	0	0
43.58000000000121	-1.247210200896625	4.898181075251385	96.86351889106469	0	0.9399999999999999	0	-2.726932056637624	-5.455700887811608	-9.360691787895741	23.30336200273272	0.4067203937318257	0	0	0	1.4761917681084	2.451459082164578	-2.534323599631447	2.985063369037443	0.05209918417037793	0	0	0	0	0	0	37.51087507418704	-37.51087507418704	4.792508555053082	82.36262885074541	85.2074917105334	0	0	37.51087507418704	-37.51087507418704	4.792508555053082	82.36262885074541	85.20749171049275	0	0
43.60000000000122	-1.39763449590751	4.814066878450729	96.73399309351097	0	0.9399999999999999	0	-3.807430530405981	-5.229399393732284	-9.583655165017355	22.82086115837359	0.3982991653541063	0	0	0	2.081610132330892	2.431634946710608	-2.538440746573327	2.386895081301671	0.04165917806837189	0	0	0	0	0	0	37.51307889897326	-37.51307889897326	4.79263096242889	82.36418591771017	85.20736930316336	0	0	37.51307889897326	-37.51307889897326	4.79263096242889	82.36418591771017	85.20736930312273	0	0
43.62000000000122	-1.47668057127591	4.726577450445168	96.65533601533097	0	0.9399999999999999	0	-4.789692732145195	-4.913435071698824	-9.722213326540617	22.08580158919876	0.3854699556737144	0	0	0	2.687346585528401	2.402989125906211	-2.209971330630939	2.193172928950067	0.03827808867578632	0	0	0	0	0	0	37.51526253920723	-37.51526253920723	4.792752294949987	82.36572931226628	85.20724797064788	0	0	37.51526253920723	-37.51526253920723	4.792752294949987	82.36572931226628	85.20724797060727	0	0
